<svg width="15" height="15" viewBox="0 0 15 15" fill="none" xmlns="http://www.w3.org/2000/svg">
<path d="M7.5 0.000401754C5.53191 -0.020531 3.63639 0.777282 2.23004 2.2185C0.823696 3.65972 0.0215865 5.62642 0 7.68637C0.00758344 9.31432 0.507916 10.8979 1.42913 12.2096C2.35035 13.5213 3.64505 14.4936 5.12727 14.987C5.50227 15.0583 5.63864 14.8228 5.63864 14.6159C5.63864 14.4089 5.63864 13.9522 5.63864 13.3099C3.55227 13.7738 3.10909 12.2822 3.10909 12.2822C2.9702 11.814 2.67493 11.4138 2.27727 11.1547C1.59545 10.6837 2.33182 10.6908 2.33182 10.6908C2.56749 10.7238 2.79297 10.8122 2.99135 10.9494C3.18973 11.0866 3.35585 11.269 3.47727 11.483C3.68886 11.867 4.03605 12.1487 4.4441 12.2675C4.85215 12.3863 5.28845 12.3326 5.65909 12.1181C5.69721 11.7273 5.86629 11.3632 6.13636 11.0905C4.47273 10.8978 2.72727 10.2412 2.72727 7.29386C2.7124 6.52504 2.9838 5.7803 3.48409 5.21715C3.25625 4.55708 3.28315 3.83005 3.55909 3.1904C3.55909 3.1904 4.19318 2.98344 5.60455 3.97541C6.83311 3.63274 8.12598 3.63274 9.35455 3.97541C10.7864 2.98344 11.4 3.1904 11.4 3.1904C11.6759 3.83005 11.7028 4.55708 11.475 5.21715C11.9869 5.76998 12.273 6.50972 12.2727 7.27959C12.2727 10.2341 10.5136 10.8835 8.86364 11.0762C9.04431 11.2598 9.18387 11.483 9.27228 11.7298C9.3607 11.9766 9.39578 12.2408 9.375 12.5035V14.6087C9.375 14.6087 9.51136 15.0583 9.88636 14.9798C11.3644 14.4834 12.6547 13.5108 13.5731 12.201C14.4915 10.8911 14.9909 9.31104 15 7.68637C14.9784 5.62642 14.1763 3.65972 12.77 2.2185C11.3636 0.777282 9.46809 -0.020531 7.5 0.000401754Z" fill="#231F20" fill-opacity="0.5"/>
</svg>
