<svg width="40" height="40" viewBox="0 0 40 40" fill="none" xmlns="http://www.w3.org/2000/svg">
<path d="M20.0003 1.66647C15.1894 1.61758 10.556 3.48081 7.11821 6.84667C3.68047 10.2125 1.71976 14.8056 1.66699 19.6165C1.68553 23.4184 2.90856 27.1167 5.16043 30.18C7.41229 33.2434 10.5771 35.5143 14.2003 36.6665C15.117 36.8331 15.4503 36.2831 15.4503 35.7998C15.4503 35.3165 15.4503 34.2498 15.4503 32.7498C10.3503 33.8331 9.26699 30.3498 9.26699 30.3498C8.92749 29.2563 8.20571 28.3215 7.23366 27.7165C5.56699 26.6165 7.36699 26.6331 7.36699 26.6331C7.94308 26.7101 8.49425 26.9166 8.97917 27.237C9.4641 27.5574 9.87019 27.9834 10.167 28.4831C10.6842 29.38 11.5329 30.0379 12.5303 30.3154C13.5278 30.5928 14.5943 30.4675 15.5003 29.9665C15.5935 29.0538 16.0068 28.2035 16.667 27.5665C12.6003 27.1165 8.33366 25.5831 8.33366 18.6998C8.29729 16.9043 8.96073 15.165 10.1837 13.8498C9.6267 12.3082 9.69247 10.6103 10.367 9.11646C10.367 9.11646 11.917 8.63313 15.367 10.9498C18.3701 10.1495 21.5305 10.1495 24.5337 10.9498C28.0337 8.63313 29.5337 9.11646 29.5337 9.11646C30.2082 10.6103 30.2739 12.3082 29.717 13.8498C30.9683 15.1409 31.6677 16.8685 31.667 18.6665C31.667 25.5665 27.367 27.0831 23.3337 27.5331C23.7753 27.9619 24.1164 28.4832 24.3326 29.0596C24.5487 29.6359 24.6345 30.253 24.5837 30.8665V35.7831C24.5837 35.7831 24.917 36.8331 25.8337 36.6498C29.4466 35.4905 32.6008 33.2191 34.8456 30.16C37.0905 27.101 38.3113 23.4108 38.3337 19.6165C38.2809 14.8056 36.3202 10.2125 32.8824 6.84667C29.4447 3.48081 24.8112 1.61758 20.0003 1.66647Z" fill="#231F20" fill-opacity="0.5"/>
</svg>
