<svg width="15" height="15" viewBox="0 0 15 15" fill="none" xmlns="http://www.w3.org/2000/svg">
<path d="M9.56873 5.43138C11.3191 7.18359 11.2951 9.99284 9.57927 11.7182C9.57605 11.7217 9.57224 11.7255 9.56873 11.729L7.59998 13.6978C5.86355 15.4342 3.03848 15.434 1.30232 13.6978C-0.434107 11.9616 -0.434107 9.13626 1.30232 7.40013L2.38941 6.31304C2.67769 6.02476 3.17416 6.21636 3.18904 6.62376C3.20802 7.14296 3.30113 7.66459 3.47293 8.16832C3.53111 8.33889 3.48954 8.52756 3.3621 8.655L2.97869 9.0384C2.15761 9.85948 2.13186 11.1964 2.94485 12.0255C3.76587 12.8628 5.11534 12.8678 5.94265 12.0404L7.9114 10.072C8.73731 9.24609 8.73385 7.91115 7.9114 7.0887C7.80298 6.98048 7.69376 6.8964 7.60844 6.83766C7.54809 6.79621 7.49826 6.74124 7.46292 6.67712C7.42758 6.61299 7.40772 6.5415 7.40492 6.46834C7.39332 6.15876 7.503 5.83975 7.74763 5.59512L8.36445 4.97828C8.5262 4.81653 8.77994 4.79667 8.9675 4.92756C9.18229 5.07755 9.38348 5.24614 9.56873 5.43138ZM13.6977 1.30223C11.9615 -0.433959 9.13645 -0.434193 7.40003 1.30223L5.43128 3.27098C5.42776 3.27449 5.42395 3.2783 5.42073 3.28181C3.70493 5.00716 3.68087 7.81641 5.43128 9.56862C5.61651 9.75385 5.81769 9.92243 6.03248 10.0724C6.22004 10.2033 6.47381 10.1834 6.63552 10.0217L7.25234 9.40485C7.49697 9.16022 7.60666 8.84121 7.59505 8.53163C7.59225 8.45847 7.57239 8.38698 7.53705 8.32286C7.50172 8.25873 7.45188 8.20376 7.39153 8.16231C7.30622 8.10357 7.197 8.01949 7.08857 7.91127C6.26612 7.08882 6.26266 5.75388 7.08857 4.92797L9.05732 2.95952C9.88464 2.13221 11.2341 2.13719 12.0551 2.97446C12.8681 3.80356 12.8424 5.14049 12.0213 5.96157L11.6379 6.34497C11.5104 6.47241 11.4689 6.66109 11.527 6.83165C11.6988 7.33538 11.792 7.85701 11.8109 8.37621C11.8258 8.78361 12.3223 8.97521 12.6106 8.68693L13.6977 7.59984C15.4341 5.86374 15.4341 3.03836 13.6977 1.30223Z" fill="#918F8F"/>
</svg>
